<svg xmlns="http://www.w3.org/2000/svg" version="1.1" xmlns:xlink="http://www.w3.org/1999/xlink" width="36" height="36"><svg xmlns="http://www.w3.org/2000/svg" viewBox="0 0 36 36"><path fill="#006941" d="M14 19c-3.314 0-6 2.687-6 6s2.686 6 6 6 6-2.687 6-6-2.687-6-6-6zm0 10c-2.209 0-4-1.791-4-4s1.791-4 4-4 4 1.791 4 4-1.791 4-4 4z"></path><path fill="#328766" d="M1.783 14.023v.02C.782 14.263 0 15.939 0 18s.782 3.737 1.783 3.956v.021l28.701 7.972V6.064L1.783 14.023z"></path><ellipse fill="#005434" cx="31" cy="18" rx="5" ry="12"></ellipse></svg><style>@media (prefers-color-scheme: light) { :root { filter: none; } }
@media (prefers-color-scheme: dark) { :root { filter: none; } }
</style></svg>